<svg width="128" height="128" viewBox="0 0 128 128" fill="none" xmlns="http://www.w3.org/2000/svg">
<g clip-path="url(#clip0_203_19)">
<path d="M41.277 98.9496C41.277 98.9496 34.678 101.789 45.9735 102.75C59.658 103.905 66.6515 103.739 81.732 101.627C81.732 101.627 85.697 103.467 91.2335 105.06C57.428 115.78 14.724 104.439 41.277 98.9496ZM37.146 84.9606C37.146 84.9606 29.7445 89.0144 41.0485 89.8793C55.6665 90.9951 67.2105 91.0864 87.1865 88.2405C87.1865 88.2405 89.9495 90.3129 94.294 91.4464C53.4205 100.289 7.895 92.1437 37.146 84.9606Z" fill="#5382A1"/>
<path d="M71.971 61.231C80.301 68.3265 69.7825 74.7117 69.7825 74.7117C69.7825 74.7117 90.933 66.6332 81.2195 56.5168C72.1475 47.0833 65.19 42.3954 102.853 26.2341C102.853 26.2341 43.7345 37.1588 71.971 61.231Z" fill="#E76F00"/>
<path d="M116.682 109.296C116.682 109.296 121.565 112.273 111.303 114.577C91.7905 118.95 30.0875 120.271 12.9465 114.751C6.785 112.768 18.34 110.016 21.9745 109.438C25.765 108.83 27.9315 108.943 27.9315 108.943C21.079 105.371 -16.36 115.956 8.9145 118.987C77.841 127.258 134.56 115.263 116.682 109.296ZM44.45 70.4666C44.45 70.4666 13.0645 75.9824 33.336 77.9849C41.895 78.8328 58.9575 78.6412 74.851 77.6557C87.84 76.8455 100.882 75.1216 100.882 75.1216C100.882 75.1216 96.3025 76.5729 92.989 78.2469C61.117 84.4489 -0.453999 81.5638 17.2715 75.2196C32.262 69.8584 44.45 70.4666 44.45 70.4666ZM100.753 93.7515C133.153 81.2948 118.172 69.3242 107.716 70.9372C105.153 71.3315 104.011 71.6734 104.011 71.6734C104.011 71.6734 104.963 70.5709 106.78 70.0937C127.465 64.7129 143.373 85.9631 100.102 94.3793C100.102 94.3797 100.603 94.0482 100.753 93.7515Z" fill="#5382A1"/>
<path d="M81.2195 0.137241C81.2195 0.137241 99.163 13.4182 64.201 33.8393C36.1655 50.2211 57.808 59.5614 64.1895 70.2331C47.8245 59.3088 35.8145 49.6917 43.872 40.7414C55.6975 27.6021 88.459 21.2325 81.2195 0.137241Z" fill="#E76F00"/>
<path d="M47.634 127.506C78.7335 128.979 126.49 126.689 127.621 115.801C127.621 115.801 125.447 119.929 101.919 123.207C75.375 126.902 42.637 126.471 23.2195 124.102C23.22 124.102 27.194 126.537 47.634 127.506Z" fill="#5382A1"/>
</g>
<defs>
<clipPath id="clip0_203_19">
<rect width="128" height="128" fill="white"/>
</clipPath>
</defs>
</svg>
