<svg width="128" height="128" viewBox="0 0 128 128" fill="none" xmlns="http://www.w3.org/2000/svg">
<g clip-path="url(#clip0_403_2)">
<path d="M0 128V0H128V128H0Z" fill="#FFD600"/>
<path d="M99.2668 107.632C101.326 110.976 103.563 114.181 108.303 114.181C112.285 114.181 114.373 112.202 114.373 109.464C114.373 106.188 112.213 105.025 107.833 103.118L105.432 102.094C98.5021 99.1544 93.893 95.4707 93.893 87.6898C93.893 80.5189 99.3828 75.0619 107.961 75.0619C114.07 75.0619 118.459 77.1774 121.625 82.7178L114.144 87.4994C112.499 84.5596 110.719 83.4022 107.961 83.4022C105.146 83.4022 103.364 85.1785 103.364 87.4994C103.364 90.3678 105.149 91.5282 109.27 93.3046L111.672 94.3281C119.839 97.8065 124.445 101.359 124.445 109.345C124.445 117.951 117.649 122.667 108.526 122.667C99.603 122.667 94.5358 118.189 91.715 112.645L99.2668 107.632ZM64.7928 107.876C66.2984 110.571 68.5865 112.645 71.8774 112.645C75.0255 112.645 76.8376 111.401 76.8376 106.566V75.0589H86.7549V108.09C86.7549 118.108 80.9437 122.667 72.4576 122.667C64.7898 122.667 59.2554 117.471 57 112.645L64.7928 107.876Z" fill="#000001"/>
</g>
<defs>
<clipPath id="clip0_403_2">
<rect width="128" height="128" fill="white"/>
</clipPath>
</defs>
</svg>
