<svg width="128" height="128" viewBox="0 0 128 128" fill="none" xmlns="http://www.w3.org/2000/svg">
<g clip-path="url(#clip0_203_25)">
<path d="M127.928 28.9067C127.976 29.0769 128 29.2524 128 29.4289V56.8558C128 57.5724 127.605 58.2342 126.964 58.5906L103.225 71.8449V98.114C103.225 98.4655 103.13 98.8108 102.949 99.1154C102.768 99.42 102.508 99.673 102.194 99.8493L52.64 127.511C52.5265 127.573 52.403 127.613 52.279 127.656C52.2325 127.671 52.189 127.698 52.14 127.711C51.7936 127.8 51.4294 127.8 51.083 127.711C51.026 127.697 50.9745 127.666 50.9205 127.646C50.807 127.606 50.6885 127.571 50.5805 127.511L1.0365 99.8488C0.721671 99.6735 0.46007 99.4209 0.27809 99.1163C0.0961102 98.8117 0.000187681 98.466 0 98.114L0 15.8333C0 15.6529 0.026 15.4779 0.072 15.3082C0.0875 15.2505 0.1235 15.1981 0.1445 15.1404C0.183 15.0357 0.2195 14.9281 0.276 14.8306C0.3145 14.7656 0.371 14.7133 0.4175 14.6531C0.477 14.5731 0.531 14.4907 0.6005 14.4204C0.66 14.3632 0.7375 14.3205 0.8045 14.2706C0.8795 14.2105 0.946 14.1455 1.031 14.098H1.0335L25.8065 0.267201C26.1202 0.092138 26.4758 0 26.8377 0C27.1997 0 27.5553 0.092138 27.869 0.267201L52.642 14.098H52.647C52.7295 14.1484 52.7995 14.2105 52.874 14.2682C52.941 14.3181 53.016 14.3632 53.075 14.4185C53.1475 14.4907 53.199 14.5736 53.2605 14.6531C53.3045 14.7133 53.364 14.7656 53.4 14.8306C53.459 14.9305 53.4925 15.0357 53.534 15.1409C53.5545 15.1981 53.5905 15.2505 53.606 15.3106C53.6535 15.4808 53.678 15.6568 53.6785 15.8333V67.2243L74.3215 55.698V29.4265C74.3215 29.2519 74.3475 29.074 74.394 28.9067C74.412 28.8466 74.4455 28.7942 74.466 28.737C74.5075 28.6318 74.5435 28.5237 74.6 28.4267C74.6385 28.3617 74.695 28.3094 74.7395 28.2493C74.801 28.1693 74.8525 28.0868 74.9245 28.0165C74.9845 27.9593 75.059 27.9167 75.126 27.8667C75.2035 27.8066 75.2705 27.7416 75.353 27.6941H75.3555L100.131 13.8633C100.445 13.688 100.8 13.5957 101.162 13.5957C101.524 13.5957 101.88 13.688 102.193 13.8633L126.966 27.6941C127.054 27.7441 127.121 27.8066 127.199 27.8638C127.263 27.9142 127.338 27.9593 127.397 28.0141C127.469 28.0868 127.521 28.1693 127.582 28.2493C127.629 28.3094 127.686 28.3617 127.722 28.4267C127.781 28.5237 127.814 28.6318 127.855 28.737C127.879 28.7942 127.913 28.8466 127.928 28.9067ZM123.87 55.6985V32.8912L115.201 37.7305L103.225 44.4175V67.2248L123.873 55.6985H123.87ZM99.0975 96.9567V74.1334L87.3165 80.658L53.676 99.2762V122.313L99.0975 96.9557V96.9567ZM4.1295 19.2951V96.9567L49.546 122.311V99.2786L25.82 86.2575L25.8125 86.2527L25.8025 86.2478C25.7225 86.2027 25.655 86.1378 25.5805 86.083C25.5155 86.0325 25.441 85.9928 25.3845 85.9375L25.3795 85.9302C25.3125 85.8677 25.266 85.7901 25.2095 85.7203C25.1575 85.6524 25.096 85.5952 25.0545 85.5254L25.052 85.5176C25.0055 85.443 24.977 85.3528 24.9435 85.2679C24.91 85.1928 24.8665 85.1225 24.8455 85.043V85.0405C24.82 84.9455 24.815 84.8451 24.8045 84.7477C24.7945 84.673 24.7735 84.5979 24.7735 84.5227V30.8219L12.799 24.1319L4.1295 19.298V19.2951ZM26.8405 4.31181L6.1995 15.8333L26.8355 27.3542L47.4735 15.8304L26.8355 4.31181H26.8405ZM37.5745 76.2139L49.5485 69.5298V19.2951L40.88 24.1348L28.9025 30.8214V81.0556L37.5745 76.2139ZM101.162 17.9079L80.524 29.4289L101.162 40.9504L121.798 29.4265L101.162 17.9079ZM99.097 44.4175L87.1205 37.7305L78.4515 32.8912V55.6985L90.4255 62.3831L99.0975 67.2248V44.4175H99.097ZM51.6085 95.8144L81.88 79.0561L97.012 70.6818L76.389 59.168L52.6445 72.4238L31.0035 84.5053L51.6085 95.8144Z" fill="#FF2D20"/>
</g>
<defs>
<clipPath id="clip0_203_25">
<rect width="128" height="128" fill="white"/>
</clipPath>
</defs>
</svg>
